<svg xmlns="http://www.w3.org/2000/svg" width="250" height="250" viewBox="0 0 250 250">
<!-- SVG created with Arrow, by QuiverAI (https://quiver.ai) -->
  <rect width="250" height="250" fill="#F5F5F5"/>
  <path d="m129.1 29h-0.89c-50.93 0-94.72 44.58-94.72 96.31 0 52.16 42.82 94.6 95.41 94.6h0.08c52.3 0 96.21-42.29 96.21-94.24 0-50.71-42.76-96.67-96.09-96.67zm-0.2 180.7h-0.07c-46.71-0.03-83.51-37.39-83.51-84.43 0-45.56 37.91-86.07 82.93-86.07h0.77c46.75 0 84.38 39.45 84.38 86.35 0 46.65-38.06 84.15-84.5 84.15z" fill="#191919"/>
  <path d="m95.95 82.64c-9.02 0-13.56 7.15-13.56 13.49 0 7.7 6.05 13.78 13.52 13.78 8.17 0 13.8-6.2 13.8-13.51 0-7.51-6.09-13.76-13.76-13.76z" fill="#191919"/>
  <path d="m163.3 82.64c-8.49 0-14.66 6.37-14.66 13.76 0 8.06 6.29 13.51 14.54 13.51 8.06 0 13.5-6.3 13.5-13.25 0-7.55-6.15-14.02-13.38-14.02z" fill="#191919"/>
  <path d="m72.16 129.7v2.63c0 27.61 22.82 54.13 56.71 54.13 28.85 0 57.87-24.19 57.87-54.79v-1.97h-114.6zm56.55 46.47c-22.7 0-40-15.93-44.39-35.97h89.57c-4.67 18.71-22.01 35.97-45.18 35.97z" fill="#191919"/>
</svg>