<svg xmlns="http://www.w3.org/2000/svg" width="250" height="250" viewBox="0 0 250 250">
<!-- SVG created with Arrow, by QuiverAI (https://quiver.ai) -->
  <path d="m249.6 0.68h-249.2v248.6h249.2v-248.6z" fill="#F0ECEC"/>
  <path d="m125 33.01c-47.23 0-88.01 39.76-88.01 88.93 0 48.49 40.18 87.74 88.01 87.74 48.51 0 88.01-39.38 88.01-87.74 0-48.48-39.5-88.93-88.01-88.93zm0 166.1c-42.92 0-76.74-35.14-76.74-77.28 0-42.7 35.4-77.7 76.74-77.7 42.92 0 78.32 34.6 78.32 77.97 0 42.43-34.21 77.01-78.32 77.01z" fill="#121212"/>
  <path d="m86.31 121.6 15.67-15.4c4.84 3.96 5.45 10.65 5.45 15.4 0 6.28-2.72 11.13-5.45 14.5l-15.67-14.5z" fill="#121212"/>
  <path d="m118.4 89.46-7.13 7.6c7.63 8.02 10.51 16.19 10.51 24.68 0 10.03-4.84 19.14-10.51 25.17l7.5 7.34c9.95-10.28 13.1-21.51 13.1-32.51 0-12.89-5.92-25.13-13.47-32.28z" fill="#121212"/>
  <path d="m135.4 71.21-7.54 7.9c11.83 12.62 18.09 25.51 18.09 42.5 0 15.55-7.01 31.37-17.89 43.71l7.54 6.4c13.49-13.96 20.9-30.11 20.9-50.11 0-18.7-7.62-36.59-21.1-50.4z" fill="#121212"/>
</svg>